<?xml version="1.0" encoding="UTF-8"?>
<svg id="Layer_1" xmlns="http://www.w3.org/2000/svg" version="1.1" viewBox="0 0 1024 1024">
  <!-- Generator: Adobe Illustrator 29.3.1, SVG Export Plug-In . SVG Version: 2.1.0 Build 151)  -->
  <defs>
    <style>
      .st0 {
        fill: #a2a8ab;
      }

      .st1 {
        fill: #0f9fbe;
      }

      .st2 {
        fill: #02a5d2;
      }

      .st3 {
        fill: #00bdd3;
      }

      .st4 {
        fill: #1b7f96;
      }

      .st5 {
        fill: #01b2d5;
      }

      .st6 {
        fill: #01c5d1;
      }

      .st7 {
        fill: #03b9cf;
      }

      .st8 {
        fill: #fafbfb;
      }

      .st9 {
        fill: #92999d;
      }

      .st10 {
        fill: #b2b8ba;
      }

      .st11 {
        fill: #99a3a6;
      }

      .st12 {
        fill: #fcfdfd;
      }
    </style>
  </defs>
  <path class="st11" d="M461,358c-11.3-1.7-26.3,1.2-38,0,1,25.6-1.3,52.1,0,77.6,0,1.3,0,2.5,1.1,3.4v1c-.7,0-2.1.5-2-.6v-82.4s39,1,39,1Z"/>
  <path class="st11" d="M987.5,492c1.6,1.6,5,6.5,5,8.5v45.5h-15v-39c.1.5.9.8,1.1,2.4.6,5.2-1.3,34.4,0,35.6h13v-44.5c0-1.4-3.4-6.6-4-8.5Z"/>
  <path class="st9" d="M441,651h-1v-67c3.2,1.1-.3,59.7,1,67Z"/>
  <path class="st0" d="M420,570v1c-2.2,3.6-.5,8.8-1,13,.9.9,18.1-1,21,0v1h-22s0-15,0-15c.7,0,1.3,0,2,0Z"/>
  <path class="st9" d="M458,440c-6.9.9-27.1.9-34,0v-1l34,1Z"/>
  <path class="st10" d="M450,546c-7.3,2.1-9.9,2-17-1l17,1Z"/>
  <path class="st9" d="M450,486l-15,1c5.8-2.4,8.9-3,15-1Z"/>
  <path class="st11" d="M460,373l-21-1v53c5.4-.5,11.7.6,17,0-5.4,2.3-12.3.4-18,1v-53.5c0-2.1,13.2-1.7,15.5-1.5,3.5.3,3.8.9,6.5,2Z"/>
  <path class="st0" d="M456,530c4.8-7.3,4-14.8,3-23,3.5,7.1,3.1,17.4-3,23Z"/>
  <path class="st10" d="M434,525c-2.9-6.1-2.3-7.8-1-14l1,14Z"/>
  <g>
    <path class="st12" d="M422.9,435.6c0,1.3,0,2.5,1.1,3.4l34,1c14.9-1.9,26.6-12.4,32-26,3.1-7.7,4-13.9,2-22-.7-3-.1-5.5-.2-5.8-.2-.5-3.4-6.7-4.2-8.2-5.3-9.8-15.2-18.3-26.5-20-11.3-1.7-26.3,1.2-38,0,1,25.6-1.3,52.1,0,77.6ZM438,372.5c0-2.1,13.2-1.7,15.5-1.5,3.5.3,3.8.9,6.5,2,8.9,3.9,12.1,7.8,15,17,.8,7.8-.3,13.6-2,21-.1.6.2,1.4,0,2-2.9,3-4.5,6.5-8,9-2,1-7,2.8-9,3-5.4,2.3-12.3.4-18,1v-53.5Z"/>
    <path class="st12" d="M671.8,523c.5-1.2,1.7-2,1-4-3.9,0-11.9-2.7-15,0-3,2.7-4.3,11.8-11.7,13.8-11.7,3.1-22.1-.8-27.2-11.8-.5-4.6-2.9-9.9-3-14.6,0-3.9,2-7.8,1-11.4.2-.6,1.6-5.4,1.7-5.7,5.2-11.7,23.7-15,33.2-6.7,1.4,1.2,2,3.1,3.1,4.4,1,1.2,1.4,5.7,2.7,6,3.8.9,11-.8,15.3,0,.7-4.3-1.2-6.7-3-10-4.5-8.4-13.3-16.6-23-18-4.7-1.7-12.3-1.7-17,0-18.7,2.3-28.6,20.1-30,37-.5,5.9-.5,11,1,17,8.8,35,56.9,39.8,70.9,4Z"/>
    <path class="st12" d="M433,545l17,1c3.8-1.1,6.6-1,9.5-5,1.3.8.2,3.1,1.5,4,3.2,2.4,10.9.4,15,1l-1-2v-80h-14.5c-3.5,0,.3,23.8-2.5,27-1.9-2.1-5.3-4.1-8-5l-15,1c-23,9.4-24.5,48.5-2,58ZM433,511c3.2-15.4,19.2-17.8,26-4,3.5,7.1,3.1,17.4-3,23-8.3,7.7-17.4,4.6-22-5-2.9-6.1-2.3-7.8-1-14Z"/>
    <path class="st12" d="M778.7,406.5c-15.1,5-16.8,25.4-2.7,32.7,9.4,4.9,20.8,2.8,27.7-5.2,2,.8.5,5.5,1,6,.5.5,12.8-.4,15,0v-42c-2.8-1.6-2.1-4.9-3.6-7.9-8.4-17.4-47-14.3-47.4,7.9,3.2-.7,11.5,2.4,13.9.9.8-.5.3-4.8,3.8-6.7,7.6-4,20.1.4,17.3,10.2-.4,1.5-21.3,2.9-25.1,4.1ZM781.7,422c3.5-8.9,14.2-6.6,22-8,.2,3.1-.5,6.3-2,9-3.8,6.8-18.3,10.1-20-1Z"/>
    <path class="st12" d="M676.6,606.6c-12.6-24.9-47-20.2-51.8,8.4-1.1,6.7-1.2,8.3,0,15,2,11.3,7.2,17.4,18,21,7.2,2.4,7.4,2.4,15,1,9.1-1.7,14.3-5.9,19-14,.8-1.5,2.7-2.4,2-5-4.3.6-11.5-1.3-15,1-2.2,1.5-2.2,4.1-6.2,5.3-10.2,3.2-20-2.5-17.8-13.3h38.3c1.2-.2.5-1.4.6-2,1.1-3.6-.3-13.8-2.1-17.4ZM663.8,615h-25c.7-15.2,24.6-16.6,25,0Z"/>
    <path class="st12" d="M479,614c-1.3,6.7-1.3,9.2,0,16,2.3,12.2,10.8,19.9,23,22,7.2,1.2,7.9,1.8,15-1,11.1-4.3,16.3-10.8,19-22,1.4-5.8,1.7-10.1,0-16-8.3-29.6-51.2-29.8-56.9,1ZM491.8,620.5c0-1.9,2-1.3,2-1.9,0-1-1.1-1.9-.7-3.8,1.6-9.4,13.9-13.9,21.8-9.2,1.8,1.1,5.2,6.4,6.1,8.4.3,5.8.8,10.3-1,16-6.1,19.5-29,9.3-28.1-9.5Z"/>
    <path class="st12" d="M987.5,492c-8.5-8.3-22.6-8.6-31,0-2-.8-.5-5.5-1-6-.5-.5-12.8.4-15,0,1,7.6-1.8,56.2,1,59,2.3,2.3,11.4.4,15,1v-38c.6-2.8,1-3.8,3-6,5.5-3.5,10.8-4.7,16,0,.2.4,1.8,4.4,2,5,.1.5.9.8,1.1,2.4.6,5.2-1.3,34.4,0,35.6h13v-44.5c0-1.4-3.4-6.6-4-8.5Z"/>
    <path class="st12" d="M705.5,614.7c-8-2.6-8.7-8.5-.8-11.7,4.8-.5,8.2,1.6,12,4,.2.7-.3,2.7,0,3,.7.6,12.7-.4,15,0,.3-4.8-.8-7.6-4-11-9.6-10.2-30.4-11.2-39.8-.3-7.5,8.6-4.3,17.1,3.8,23.3,7.6,5.8,14.3,4.8,23,8,2.7,2.4,4.9,4,1.5,8-1.6,1.9-10.2,3.3-12.5,2.6-4.3-1.2-7.2-7.3-8-7.6-2.8-.9-9.6.6-13,0-.9,3.6.8,4.8,2,7,10.9,21.3,49.8,15.4,47-9.5-1.6-13.8-16.3-12.5-26.2-15.8Z"/>
    <path class="st12" d="M847.7,428.4c-1.8-3.9-8.4-5.4-12.4-4.2-4.3,1.3-6.3,6.9-4.4,11,5.3,11.6,21.4,3.4,16.8-6.8Z"/>
    <path class="st12" d="M614.4,441c1.5.1,6.5-1.3,7.7-2,1.2-.8.5-1.7.7-2,.4-.6,1.6-.4,2-2.5,1-5.3-.4-9.8-6-10.5-17.1-2.1-14.3,16.1-4.4,17Z"/>
    <path class="st12" d="M755.7,440v-83c-6.7.6-14.6-1.3-21,1l-21,57c-2.3.4-1.6-.1-2.2-1.3-.8-1.5-1.8-4.6-2.5-6.5-5.6-14.5-9.5-29.8-15.2-44.2,0-1.4-.2-5.7-1.7-6-5.8-1.4-16.9,1.1-23.3,0v83c4-.8,12.8,1.1,16,0,2.8-1-.8-48.7,2-55,4.3,15.9,11.1,33.5,17,49,.4,1.1,1.9,5.7,2.1,5.9,1.5,1,10.6-.4,13.2.2l2.7-9c6-15.5,11.3-30.1,17-46l2-1.5v56.5s15,0,15,0Z"/>
    <path class="st12" d="M518.9,405c1.4-5.7,2.7-7.3,8-10,1.5-.7,10-.5,10-1v-15c-2.8.4-6.9-1.1-9,1-2.8.5-6.5,3.9-8.5,6-1.3-1.1-1.1-3.5-1.5-5-.1-.6.2-1.8,0-2-.3-.2-4.7,1.3-7,1.2-.3,0-.7-.2-1-.2-.3,0-.7,0-1,0l-.5-1-1.5,1c-.3,0-.7,0-1,0,0,0,0-1.9-1.5,0l-.5,60h15v-35Z"/>
    <path class="st12" d="M480,584c1-3-.7-10.4,0-14-19.8.7-40.2-1-59.9,0v1c-2.2,3.6-.5,8.8-1,13,.9.9,18.1-1,21,0,3.2,1.1-.3,59.7,1,67h-1c.7,2.2,14,.5,17,1v-67c6.8-.6,15,.9,21.5,0,1-.1,1.1,0,1.4-1Z"/>
    <path class="st12" d="M930.5,510c-1.1-8.4-1.3-13.2-8.7-18.8-1.6-1.2-7.8-4.9-9.3-5.2-5.6-1.9-14.3-2-19,2-8.7,3.5-13.3,11.2-15,20-1.3,6.7-1.1,8.4,0,15,1.8,10.5,4.2,14.2,13,20,.3.2.6,1.3,1.6,1.9,4.1,2.1,6.2,1.8,10.4,2.1.2,0,1,1.1,2.4,1,6.6,0,13.1-2.4,17.6-7,2.6-2.7,5.2-6.7,7-10,3.5-6.4-8.6-3.3-12.4-4-1.2.2-.4,1.7-.6,2-.3.5-1.8,2.8-2,3-4.7,2.1-8.9,2.3-14,2-5-1.5-4.7-1.8-7-6l-2-7h40c0-2.5.1-5,0-7.6,0-1.9,1-4-2-3.5ZM916.5,504c-.3,1.2.7,4.8-.6,5-4.3.7-15.3.4-20,0-3.1-.2-2.6.5-2.4-3,3.4-10.7,18.7-10.6,23-2Z"/>
    <path class="st12" d="M563.9,465c-1.1-1.4-12.9-1.4-14,0-3.8,5.2.9,69.8-1,81,5-.6,11.3,1.3,16-1-1.5-10.2,2.3-76-1-80Z"/>
    <path class="st12" d="M595.9,440v-43c-2.6-1.1-1.8-3.8-2.8-5.7-2.7-5.1-7.5-9.7-13.2-11.3-3.7-2.2-10.4-3.1-14-1-6.5.6-14.1,4.3-17.8,9.7-1.3,2-4.2,7.3-2.7,9.4.4.5,12.3,2,13,1.8,1.6-.3,1.5-3.9,2.5-5.5.5-.8,1.6-1,2-1.4,5.2-3.9,15.1-2.2,16.8,4.7,2.2,9-3.5,3.2-8.8,6.3-.3,0-.7,0-1,0-7.1.4-8.3-.2-15,3-11.7,5.5-15.5,14.4-9,26,.3.6.2,1,1,2,.3.4.7.7,1,1,4.3,4.1,10.8,6.4,17,6,5.6-.4,11-3.7,14.5-8,3-.3.3,2.8,2.5,5,2.3,2.3,10.4.4,14,1ZM575.9,426c-3.5,1.4-10.5,3.2-14,2-.2,0-2.7-3.3-2.8-3.7-1.4-4.7,1.5-6.2,4.8-8.3.9-.3,2.3-.9,3-1,4-.6,9.7-.3,14-1-.9,4.2-1.7,8.9-5,12Z"/>
    <path class="st12" d="M570.9,592c-4.1.7-7.6,6.3-10,6v-7c-3.6.6-11.7-1.3-14,1v59c2.3,2.3,11.4.4,15,1v-34.5c0-1.4,3.5-7.7,5-9,4-3.3,13.3-1.8,13.7-4,.1-.7-.9-13-1.2-13.6-.8-1.4-7.3,0-8.5,1Z"/>
    <path class="st12" d="M868.6,502.4c-.2-1.6-.9-1.9-1.1-2.4-1.9-6-6.3-12.8-13-14-2.5-1.7-8.7-1.7-11,0-.3,0-.7,0-1,0-.9.1-1.4.6-1.8.9h-.2c-4.3,1.6-7.2,3.9-10.5,7.1-1.5-2-3.5-4.5-5.5-6-1.6-1.2-1.7-1.6-4-2-.3,0-.7,0-1,0-2.3-1.7-8.5-1.7-11,0-2.7.4-7,3.1-9,5-1.8-.6-.6-4.6-1-5-.5-.6-12.8.4-15,0v59c.5,1.6,14.5,1.6,15,0,.4-10.9-.6-22.1,0-33,.2-4.3,0-4.4,2-8,4.1-3.8,7-6,13-5,3.8,2,4.6,7.5,5,11.5,1,11-.7,23.3,0,34.5.7,2.2,12.2.5,15,1l1-40c2.6-6,4.4-7.5,11.5-7.1,4.6.3,6.1,2.9,7.5,7.1v40c2.8-.6,14,1.2,15-1,.1-.2,0-.6,0-1,1.1-8,1-33.5,0-41.6Z"/>
    <path class="st12" d="M729.7,500c-2.8-6.4-8.8-12.8-16-14-3.7-1.7-11.1-1.7-15,0-7.1.8-11.4,4.3-15,10-1.9,2.9-3.8,4.5-3,9,4.2-.6,9.3,2,13.3,1,1.2-.3,1.1-2.2,1.7-3,.7-.9,1.2-2.2,2-3,6.7-3.1,12.3-2.8,18,2,.2,2.4-.5,4.7,1,7-1.6.2-3.4-.2-5,0-5.3.8-10.8,1.7-16,3-2.5.6-5,1-7.3,2.2-21,10.3-6,42.2,21.3,30.8,1-.4,2.3-.3,3.3-.9,1.4-.9,1.2-3.6,3.7-3.1.2,1.6-.8,4.4,1,5,1.6.6,13.3.8,14-2l-.2-4.9c-.2-11.1,1.3-23.1.2-33.6-.3-2.9-1.1-3.4-2-5.5ZM705.2,534.9c-12.9,1.7-16-10.3-3.4-12.9,3.8-.8,10-.5,14-1,1,1.1-1.9,9.8-3,11-.9,1-6,2.7-7.6,2.9Z"/>
    <path class="st12" d="M775.7,485l-6,1c-1.4.2-6.1,2.3-7.4,3.1l-4.6,3.9v-7s-15,0-15,0c0,.7,0,1.3,0,2-.9,19.1.7,38.8,0,58,4.3-.2,8.7.2,13,0,.7,0,1.3,0,2,0l1-37c3-7.3,3.8-6.6,11-9,1.4-.6,7.2,1.6,7-1.5-.2-4.2-1.9-8.9-1-13.5Z"/>
    <path class="st12" d="M525.6,526.9l-2.7,5.1c-6.4,2.2-8,5.7-15.5,2-5-2.4-6-6.2-7.4-11-.6-3,1.5-1.9,3.5-2,12.1-.4,24.4.3,36.5,0v-12c-4.2-9-7.2-18.8-18-22-3.7-2.8-11.2-2.9-15-1-11.5,1.3-19.1,11.4-21,22-1.2,6.8-1.3,9.1,0,16,1.8,10.1,4.6,15.4,14,20,1.6.8,2.4,2,4.9,2.6,8.4,2,17.1,1.6,24-3.6,2.1-1.6,5-3.9,6.4-6.1,1.5-2.2,2.3-6.6,2.6-6.9.1-.1,4,.2,2-2-1.3-1.4-11.7.2-14.3-1.1ZM513.5,497.9c7.1.4,8.3,3.7,11.5,9.1.6,3-1.5,1.9-3.5,2-5.5.2-12.6.4-18.1,0-3.1-.2-2.6.5-2.4-3,1.5-6.2,6.1-8.4,12.5-8.1Z"/>
    <path class="st12" d="M619.8,591l-9,1c-4.2.7-6.2,3.7-8,7-2-.7-.6-8-1-8h-15v61c4.7-.6,10.8,1.3,15-1,1-.3.9-.4,1-1.4,1.3-9.9-2.2-28.1.4-36.6,2.1-6.9,12-6.7,17.5-8,.3-.3-.7-1.3-1-2v-12Z"/>
  </g>
  <g>
    <path class="st6" d="M350.1,392c1.5,2.9,3.8,7.4,5,10.5s3.5,10.1,2.7,11.3c-4.7,3.6-9.8,9.4-16.2,9.2s-10.6-2.4-13.9-2-4.9,1.8-4.6,4c-.7-.7-1.4-1.5-2-2-1.8-2.9-4.4-4.9-7-7-29.6-23.3-66.2-18.9-97.9-2.5-3.3,1.7-16.6,10.6-18.5,10.6-8-3.8-15.1-9.3-23.1-13-6.2-2.8-18-7.6-24.3-9.1-8.9-3.2-19.8-4.3-29-2-1.9.3-12.8,3.2-15,4-.5-1.9,1.6-2.8,3-3.3,3.9-1.3,9.5-2.4,13.5-2.7s3.3.6,2.5-1.5c-1.8-4.3-9.5-2.8-12.3-3.7s-3.2-5.5-4.7-6.4-2.9.7-4.3.4-4.4-4.2-6.8-5.3-5.5-.6-6.7-1.8-2.3-8.1-3.7-9.8-4.3-.7-5.6-2.4-.4-4.8-1-5.5-3.7,1-2.9-2.1c32.4-19.9,68.8-17.7,102.6-2.2,6.5,3,12.4,7.1,18.8,10.1,47.5-33.3,122.3-32.2,151.3,24Z"/>
    <path class="st2" d="M40.4,405c-2,5.5-7,23-7,27.5v27.5h1v-15c4.2.3,8.3,7.2,11,8.5,5.2,2.4,9.8,3.4,14.6,7.9s.8,3.1,7.2,6.2,1.8,2.3,3.6,2.5c3.7.4,4.3-4,5,3,0-10.7-1.5-18.2,1.5-29-3.8,24.9,4.6,50,17.6,70.9,11.2,18.1,38.6,47.9,59.4,51.1,9.7,4.6,22.6,1.6,32-3s1.3-.7,2-1l5-1c-1.6,2-3.4,5.1-5,7-7.6,9.2-20.4,19.1-32,22-6,1.5-12.2,1.7-18,4-9-6.5-19.9-11.2-29.3-18.2-51.3-38.2-97.3-105.2-68.6-170.8Z"/>
    <path class="st5" d="M54.4,381c-3.6,7.3-1.3,5.3,1.2,11.3.8,1.9.4,4.4,1.3,5.7s3.6,1.5,4.5,2.5.7,3.6,2,5,11.1,4.6,13.9,6.1,4.7,5.1,9.8,6.3,1.2-3.3,4.3-2.9c-6.2,8.5-11.2,18.8-14,29-3,10.8-1.4,18.3-1.5,29-.6-6.9-1.3-2.6-5-3s-2.4-1.9-3.6-2.5c-6.5-3.1-3.2-2.6-7.2-6.2s-9.5-5.4-14.6-7.9-6.8-8.1-11-8.5v15h-1v-27.5c0-4.5,5-22,7-27.5,3.1-8.7,7.2-17.5,14-24Z"/>
    <path class="st3" d="M77.4,360c-.8,3.1,2.4,1.5,2.9,2.1s-.5,3.7,1,5.5,4.3.9,5.6,2.4,2.4,8.5,3.7,9.8,4.8,1,6.7,1.8,5.5,5,6.8,5.3,3-1.1,4.3-.4,2.6,5.7,4.7,6.4,10.6-.7,12.3,3.7c.9,2.1-1.4,1.4-2.5,1.5-4,.4-9.6,1.5-13.5,2.7s-3.5,1.4-3,3.3c-1.3.5-3.3,2.2-5,3s-4.6,1.1-4.8,1.3c-.4.3-3.4,4.7-4.2,5.7s-.7.6-1,1c-3-.4-2.2,3.4-4.3,2.9-5.1-1.2-6.7-4.6-9.8-6.3s-12.6-4.6-13.9-6.1-.7-3.6-2-5-3.7-1.1-4.5-2.5-.5-3.9-1.3-5.7c-2.6-5.9-4.8-3.9-1.2-11.3s15.6-16.5,23-21Z"/>
    <path class="st7" d="M345.1,508c.5-.5,1.6.9.5,1s-.7-.8-.5-1Z"/>
    <path class="st7" d="M350.1,501c-1-1.2-.9-3-3-1.5-4.4,2.9-1.6,8.2-2,8.5s-3.3.1-3.8-1.6-.3-9.5-.2-10.9c.3-4,1.8-8.1,2-12,1.4-20.1-6-45.2-20-58.5-.3-2.2,2.8-3.8,4.6-4,3.3-.4,10.3,2,13.9,2,6.4.1,11.5-5.7,16.2-9.2.7-1.2-2-9.4-2.7-11.3-1.2-3-3.5-7.5-5-10.5,5.2,6,8.4,15.6,10.3,23.2,7.9,31.4,2.7,57.1-10.3,85.8Z"/>
    <path class="st1" d="M323.1,425c14,13.3,21.4,38.4,20,58.5-.3,3.9-1.8,8-2,12s0,10,.2,10.9c.5,1.7,3.3,2.1,3.8,1.6-.2.2.2,1,.5,1,1.1,0,0-1.5-.5-1,.4-.4-2.4-5.6,2-8.5s2,.4,3,1.5c-22.8,50.4-69.8,89.3-113.9,121l-3,2c-.4.3-.6.7-1,1l-4,1,1-2c2.6-1.9,5.4-4,8-6,2,.2,2.2-1.1,3-2,11.3-11.7,28.5-22.9,41-34.5,38.8-36.1,81.6-89.2,50.1-144.2-1.7-3-7.9-10.2-8.2-12.3Z"/>
    <path class="st4" d="M156.3,590c-3.8,3.6-9.4,2.4-14,3.5l59.9,46.1c.7.4,1.5.3,2.3.2,2.7-.4,21-13.2,24.7-15.8l-1,2,4-1c-7.3,5.1-18,14.2-25.6,17.8-1.2.6-2.1,1.5-3.6,1-11-7.7-22-15.3-32.6-23.4s-21.5-18.8-32.1-26.4c5.8-2.3,12-2.5,18-4Z"/>
    <path class="st4" d="M233.2,624l3-2c-1.2.8-2.1,1.4-3,2Z"/>
    <path class="st4" d="M150.3,402c-7.1-1.7-21.9-2.9-29-2,9.2-2.3,20.1-1.2,29,2Z"/>
    <path class="st1" d="M321.1,423c-2.5-2.2-5.3-4-7-7,2.6,2.1,5.2,4.1,7,7Z"/>
    <path class="st1" d="M188.2,568c1.6-1.9,3.4-5,5-7l-5,1,13-8.5c-2.7,5.8-8.2,10.3-13,14.5Z"/>
    <path class="st4" d="M186.2,563c-9.4,4.6-22.3,7.6-32,3,11.9,1.8,20.7.9,32-3Z"/>
    <path class="st4" d="M92.3,414c.8-1.1,3.8-5.4,4.2-5.7s3-.4,4.8-1.3c-2.7,2.4-5.6,6.1-9,7Z"/>
    <path class="st4" d="M240.2,616c-.8.9-1,2.2-3,2,.7-.6,1-2.3,3-2Z"/>
    <g>
      <path class="st10" d="M236.2,437h68.9v16h-24c-.3,22.3.4,44.7,0,67h-1c.4-22.6-.3-45.4,0-68h24v-14h-67.9c0-.3,0-.7,0-1Z"/>
      <path class="st10" d="M237.2,452h26c.3,22.6-.4,45.4,0,68h-1c-.4-22.3.3-44.7,0-67-8.3-.3-16.7.4-25,0v-1Z"/>
      <path class="st11" d="M263.2,520c0,3,0,6,0,9h16.4c1.1-.1.5-7.4.6-9h1c0,3.3,0,6.7,0,10h-19c0-3.3,0-6.7,0-10h1Z"/>
      <path class="st9" d="M236.2,438c-.4,4-.5,10.5,1,14v1c-.7,0-1.3,0-2,0,.6-5.1-1.3-11.4,1-16,0,.3,0,.7,0,1Z"/>
      <path class="st12" d="M236.2,438h67.9v14h-24c-.3,22.6.4,45.4,0,68,0,1.7.5,8.9-.6,9h-16.4c0-3,0-6,0-9-.4-22.6.3-45.4,0-68h-26c-1.5-3.5-1.4-10-1-14Z"/>
    </g>
    <g>
      <path class="st8" d="M151.3,441c6.8,17.8,13.1,42.6,21.5,59,.8,1.6,1.2,3.4,3.5,3l24.5-66h25.5l-1,92h-17c-1-17.8,1.4-37,0-54.6-.1-2-.8-2.4-1.1-3.4s.6-2.7-.5-3c-5.4,9.4-8.9,20-12.8,30.2-3.1,7.9-6.9,16.8-9.7,25.3s-.4,3-.9,4.5c-4.9,2.1-10.8.6-16,1-9.2-21-16.7-42.7-25-64-.4-1-.7-3.2-2-3v66c-4.6,2.3-10.9.4-16,1v-91h25.3c.4,0,1.4,2.4,1.6,3Z"/>
      <path class="st10" d="M151.3,441c-.2-.6-1.3-3-1.6-3.1h-25.3v91.1c5.1-.6,11.4,1.3,16-1h1c0,.7,0,1.3,0,2h-18s0-93,0-93c7.6,1,18.4-1.3,25.5,0s2.6,1.8,2.5,4Z"/>
      <path class="st11" d="M207.2,471c.2.9.9,1.4,1.1,3.4,1.3,17.6-1.1,36.8,0,54.6h17s1,1,1,1h-19s0-59,0-59Z"/>
      <path class="st11" d="M142.3,465c-1.7,1-1,3.8-1,5.5-.2,18.9.9,38.8,0,57.5h-1v-66c1.3-.2,1.6,2,2,3Z"/>
      <path class="st9" d="M183.2,528c-.2.5.6,1.9-.6,2-3.9-.7-12.7,1.3-15.4-1,5.2-.4,11.1,1.1,16-1Z"/>
    </g>
  </g>
</svg>